<?xml version="1.0" encoding="UTF-8" standalone="no"?>
<svg width="15px" height="17px" viewBox="0 0 15 17" version="1.1" xmlns="http://www.w3.org/2000/svg" xmlns:xlink="http://www.w3.org/1999/xlink" xmlns:sketch="http://www.bohemiancoding.com/sketch/ns">
    <!-- Generator: Sketch 3.5.2 (25235) - http://www.bohemiancoding.com/sketch -->
    <title>Cat</title>
    <desc>Created with Sketch.</desc>
    <defs></defs>
    <g id="Page-1" stroke="none" stroke-width="1" fill="none" fill-rule="evenodd" sketch:type="MSPage">
        <g id="Landing-page-1" sketch:type="MSArtboardGroup" transform="translate(-984.000000, -42.000000)" fill="#FFFFFF">
            <g id="Header" sketch:type="MSLayerGroup" transform="translate(32.000000, 27.000000)">
                <g id="Github-button" transform="translate(934.000000, 0.000000)" sketch:type="MSShapeGroup">
                    <path d="M28.5678667,32 L26.3034667,32 L24.0368,32 C24.0368,32 24.0430333,30.6558667 24.0368,29.7333333 C20.9354333,30.4008667 20.0701333,28.0333333 20.0701333,28.0333333 C19.5034667,26.9 18.9368,26.3333333 18.9368,26.3333333 C17.8034667,25.6601333 18.9368,25.7666667 18.9368,25.7666667 C20.0701333,25.7666667 20.6368,26.9 20.6368,26.9 C21.6313,28.5892333 23.401,28.3172333 24.0368,28.0333333 C24.0368,27.4666667 24.285,26.6098667 24.6034667,26.3333333 C22.1282667,26.0545333 20.0678667,24.6333333 20.0678667,21.8 C20.0678667,18.9666667 20.6368,18.4 21.2034667,17.8333333 C21.089,17.5539667 20.6147,16.5215 21.2210333,15 C21.2210333,15 22.3345333,15 23.4678667,16.7 C24.0294333,16.1384333 25.7345333,16.1333333 26.3017667,16.1333333 C26.8678667,16.1333333 28.5729667,16.1384333 29.1345333,16.7 C30.2678667,15 31.3836333,15 31.3836333,15 C31.9899667,16.5215 31.5156667,17.5539667 31.4012,17.8333333 C31.9678667,18.4 32.5345333,18.9666667 32.5345333,21.8 C32.5345333,24.6333333 30.4764,26.0545333 28.0012,26.3333333 C28.3196667,26.6098667 28.5678667,27.5856667 28.5678667,28.0333333 L28.5678667,32 L28.5678667,32 Z" id="Cat"></path>
                </g>
            </g>
        </g>
    </g>
</svg>