<?xml version="1.0" encoding="UTF-8" standalone="no"?>
<svg width="187px" height="31px" viewBox="0 0 187 31" version="1.1" xmlns="http://www.w3.org/2000/svg" xmlns:xlink="http://www.w3.org/1999/xlink" xmlns:sketch="http://www.bohemiancoding.com/sketch/ns">
    <!-- Generator: Sketch 3.5.2 (25235) - http://www.bohemiancoding.com/sketch -->
    <title>Logo</title>
    <desc>Created with Sketch.</desc>
    <defs>
        <linearGradient x1="0.108573883%" y1="49.8320819%" x2="100.013389%" y2="49.8320819%" id="linearGradient-1">
            <stop stop-color="#FF156D" offset="0%"></stop>
            <stop stop-color="#FF5257" offset="25.23%"></stop>
            <stop stop-color="#FF8844" offset="50.45%"></stop>
            <stop stop-color="#FFAF36" offset="72.11%"></stop>
            <stop stop-color="#FFC72D" offset="89.34%"></stop>
            <stop stop-color="#FFD02A" offset="100%"></stop>
        </linearGradient>
        <linearGradient x1="-0.05476652%" y1="49.9571984%" x2="99.913547%" y2="49.9571984%" id="linearGradient-2">
            <stop stop-color="#FF156D" offset="0%"></stop>
            <stop stop-color="#FF5257" offset="25.23%"></stop>
            <stop stop-color="#FF8844" offset="50.45%"></stop>
            <stop stop-color="#FFAF36" offset="72.11%"></stop>
            <stop stop-color="#FFC72D" offset="89.34%"></stop>
            <stop stop-color="#FFD02A" offset="100%"></stop>
        </linearGradient>
        <linearGradient x1="0.0214986473%" y1="49.9692913%" x2="99.9070526%" y2="49.9692913%" id="linearGradient-3">
            <stop stop-color="#FF1542" offset="0%"></stop>
            <stop stop-color="#F41E4E" offset="5.632235%"></stop>
            <stop stop-color="#D6366F" offset="15.94%"></stop>
            <stop stop-color="#A65CA5" offset="29.76%"></stop>
            <stop stop-color="#6491EE" offset="46.4%"></stop>
            <stop stop-color="#559DFF" offset="50%"></stop>
            <stop stop-color="#41B4F2" offset="63.81%"></stop>
            <stop stop-color="#0EEFD2" offset="92.64%"></stop>
            <stop stop-color="#00FFC9" offset="100%"></stop>
        </linearGradient>
    </defs>
    <g id="Page-1" stroke="none" stroke-width="1" fill="none" fill-rule="evenodd" sketch:type="MSPage">
        <g id="Landing-page-1" sketch:type="MSArtboardGroup" transform="translate(-32.000000, -32.000000)">
            <g id="Header" sketch:type="MSLayerGroup" transform="translate(32.000000, 27.000000)">
                <g id="Logo" transform="translate(0.000000, 5.000000)" sketch:type="MSShapeGroup">
                    <g id="Group" transform="translate(61.868159, 7.984848)" fill="#FFFFFF">
                        <path d="M5.34950249,1.40909091 C7.11716418,1.40909091 8.2800995,1.92575758 8.69875622,2.34848485 C8.9778607,2.63030303 9.07089552,2.86515152 9.07089552,3.19393939 C9.07089552,3.75757576 8.69875622,4.08636364 8.18706468,4.08636364 C7.5358209,4.08636364 7.02412935,3.42878788 5.25646766,3.42878788 C3.48880597,3.42878788 2.65149254,4.27424242 2.65149254,5.44848485 C2.65149254,8.73636364 9.67562189,7.04545455 9.67562189,12.4 C9.67562189,15.0772727 7.76840796,17.0030303 4.14004975,17.0030303 C2.139801,17.0030303 0.883830846,16.4863636 0.465174129,16.0166667 C0.186069652,15.7348485 0.0930348259,15.5 0.0930348259,15.1712121 C0.0930348259,14.6075758 0.465174129,14.2787879 0.976865672,14.2787879 C1.62810945,14.2787879 2.09328358,14.9833333 4.27960199,14.9833333 C6.23333333,14.9833333 7.16368159,14.0439394 7.16368159,12.6818182 C7.16368159,9.15909091 0.139552239,10.8030303 0.139552239,5.73030303 C0.0465174129,3.28787879 1.90721393,1.40909091 5.34950249,1.40909091 L5.34950249,1.40909091 Z" id="Shape"></path>
                        <path d="M10.931592,7.42121212 C10.7920398,6.95151515 10.7455224,6.76363636 10.7455224,6.66969697 C10.7455224,5.96515152 11.489801,5.58939394 12.0945274,5.58939394 C12.4201493,5.58939394 12.6992537,5.68333333 12.8853234,5.87121212 C13.071393,6.05909091 13.1179104,6.34090909 13.2574627,6.81060606 L14.9320896,12.9166667 C15.211194,13.8560606 15.3042289,14.5606061 15.3042289,14.5606061 L15.3507463,14.5606061 C15.3507463,14.5606061 15.4902985,13.8560606 15.7228856,12.9166667 L17.350995,7.09242424 C17.6766169,5.96515152 18.0952736,5.58939394 19.0256219,5.58939394 C19.9559701,5.58939394 20.3746269,5.96515152 20.6537313,7.09242424 L22.2818408,12.9166667 C22.5609453,13.8560606 22.6539801,14.5606061 22.6539801,14.5606061 L22.7004975,14.5606061 C22.7004975,14.5606061 22.8400498,13.8560606 23.0726368,12.9166667 L24.6542289,6.81060606 C24.7937811,6.34090909 24.8402985,6.05909091 25.0263682,5.87121212 C25.2124378,5.68333333 25.4450249,5.58939394 25.7706468,5.58939394 C26.3753731,5.58939394 26.9800995,5.91818182 26.9800995,6.57575758 C26.9800995,6.71666667 26.9800995,6.85757576 26.8405473,7.32727273 L24.4681592,15.2651515 C24.2820896,15.8287879 24.0960199,16.2515152 23.8634328,16.4863636 C23.5843284,16.7681818 23.1656716,16.9090909 22.6074627,16.9090909 C22.0492537,16.9090909 21.6771144,16.7681818 21.39801,16.4863636 C21.1189055,16.2515152 20.9793532,15.7818182 20.7932836,15.2181818 L19.258209,9.81666667 C18.9791045,8.83030303 18.8860697,8.07878788 18.8860697,8.07878788 L18.8395522,8.07878788 C18.8395522,8.07878788 18.7465174,8.83030303 18.4674129,9.81666667 L16.8858209,15.2181818 C16.7462687,15.7818182 16.560199,16.2045455 16.3276119,16.4393939 C16.0485075,16.7212121 15.6763682,16.8621212 15.0716418,16.8621212 C14.4669154,16.8621212 14.0482587,16.7212121 13.7691542,16.4393939 C13.5365672,16.2045455 13.3504975,15.8287879 13.2109453,15.2651515 L10.931592,7.42121212 L10.931592,7.42121212 Z" id="Shape"></path>
                        <path d="M30.3293532,0.751515152 C31.2131841,0.751515152 31.8644279,1.40909091 31.8644279,2.20757576 C31.8644279,3.1 31.2131841,3.71060606 30.2828358,3.71060606 C29.399005,3.71060606 28.7477612,3.0530303 28.7477612,2.25454545 C28.7942786,1.40909091 29.399005,0.751515152 30.3293532,0.751515152 L30.3293532,0.751515152 Z M29.1199005,6.66969697 C29.1199005,5.96515152 29.4920398,5.58939394 30.3293532,5.58939394 C31.1666667,5.58939394 31.538806,5.96515152 31.538806,6.66969697 L31.538806,15.7818182 C31.538806,16.4863636 31.1666667,16.8621212 30.3293532,16.8621212 C29.4920398,16.8621212 29.1199005,16.4393939 29.1199005,15.7818182 L29.1199005,6.66969697 L29.1199005,6.66969697 Z" id="Shape"></path>
                        <path d="M34.1902985,7.51515152 C33.678607,7.51515152 33.3529851,7.18636364 33.3529851,6.57575758 C33.3529851,6.01212121 33.678607,5.63636364 34.1902985,5.63636364 L35.260199,5.63636364 L35.260199,4.55606061 C35.260199,1.87878788 36.7487562,0.328787879 39.1211443,0.328787879 C40.0049751,0.328787879 40.5631841,0.563636364 40.8422886,0.845454545 C41.0283582,1.03333333 41.121393,1.26818182 41.121393,1.5969697 C41.121393,2.11363636 40.7957711,2.44242424 40.3771144,2.44242424 C40.0049751,2.44242424 39.8189055,2.20757576 39.1211443,2.20757576 C38.1442786,2.20757576 37.5860697,2.86515152 37.5860697,4.36818182 L37.5860697,5.58939394 L42.0982587,5.58939394 L42.4238806,3.61666667 C42.5169154,2.91212121 42.9355721,2.53636364 43.5402985,2.53636364 C44.1450249,2.53636364 44.5171642,2.91212121 44.5171642,3.52272727 L44.5171642,5.58939394 L46.6104478,5.58939394 C47.1221393,5.58939394 47.4477612,5.91818182 47.4477612,6.52878788 C47.4477612,7.13939394 47.1221393,7.46818182 46.6104478,7.46818182 L44.5171642,7.46818182 L44.5171642,13.3863636 C44.5171642,14.5136364 44.8893035,14.9363636 45.7266169,14.9363636 C46.3313433,14.9363636 46.5639303,14.7484848 46.8430348,14.7484848 C47.2616915,14.7484848 47.540796,15.0772727 47.540796,15.5 C47.540796,15.8287879 47.4012438,16.0636364 47.2151741,16.2515152 C46.9825871,16.4863636 46.3313433,16.8621212 45.1218905,16.8621212 C43.0751244,16.8621212 42.1447761,15.8757576 42.1447761,13.8560606 L42.1447761,7.51515152 L37.6791045,7.51515152 L37.6791045,15.7818182 C37.6791045,16.4863636 37.2604478,16.8621212 36.4696517,16.8621212 C35.6323383,16.8621212 35.260199,16.4393939 35.260199,15.7818182 L35.260199,7.51515152 L34.1902985,7.51515152 L34.1902985,7.51515152 Z" id="Shape"></path>
                        <path d="M48.889801,7.51515152 C48.7037313,7.04545455 48.7037313,6.90454545 48.7037313,6.71666667 C48.7037313,6.01212121 49.44801,5.58939394 50.0527363,5.58939394 C50.3783582,5.58939394 50.6109453,5.68333333 50.7970149,5.87121212 C50.9365672,6.05909091 51.029602,6.2469697 51.1691542,6.71666667 L53.3554726,12.9636364 C53.6810945,13.9030303 53.8671642,14.6545455 53.8671642,14.6545455 L53.9136816,14.6545455 C53.9136816,14.6545455 54.0997512,13.8560606 54.4253731,12.9636364 L56.5651741,6.66969697 C56.7047264,6.29393939 56.7977612,6.05909091 56.9373134,5.87121212 C57.1233831,5.68333333 57.3559701,5.58939394 57.681592,5.58939394 C58.239801,5.58939394 58.9375622,5.96515152 58.9375622,6.62272727 C58.9375622,6.81060606 58.8910448,6.95151515 58.7514925,7.37424242 L55.6348259,15.6409091 C53.8671642,20.3848485 52.0064677,22.169697 49.3549751,22.169697 C48.7037313,22.169697 48.1920398,22.0287879 47.9594527,21.7469697 C47.7733831,21.5590909 47.6803483,21.2772727 47.6803483,20.9954545 C47.6803483,20.4787879 48.0059701,20.15 48.5641791,20.15 C48.9363184,20.15 49.1223881,20.1969697 49.44801,20.1969697 C50.7504975,20.1969697 51.7273632,19.1166667 52.5646766,17.1439394 L48.889801,7.51515152 L48.889801,7.51515152 Z" id="Shape"></path>
                        <path d="M60.9378109,2.81818182 C60.9378109,2.06666667 61.3564677,1.64393939 62.1007463,1.64393939 L65.2639303,1.64393939 C69.1248756,1.64393939 70.7064677,3.24090909 70.7064677,5.44848485 C70.7064677,7.09242424 69.729602,8.31363636 68.2875622,8.78333333 L68.2875622,8.78333333 C70.1482587,9.11212121 71.2646766,10.3333333 71.2646766,12.1651515 C71.2646766,14.7954545 69.3109453,16.7681818 65.0313433,16.7681818 L62.1472637,16.7681818 C61.4029851,16.7681818 60.9843284,16.3454545 60.9843284,15.5939394 L60.9843284,2.81818182 L60.9378109,2.81818182 Z M65.0313433,8.03181818 C67.2176617,8.03181818 68.14801,7.09242424 68.14801,5.73030303 C68.14801,4.36818182 67.3106965,3.56969697 65.0778607,3.56969697 L63.3567164,3.56969697 L63.3567164,8.03181818 L65.0313433,8.03181818 L65.0313433,8.03181818 Z M65.1243781,14.8424242 C67.6363184,14.8424242 68.6597015,13.7621212 68.6597015,12.3530303 C68.6597015,10.8969697 67.7293532,9.91060606 65.1243781,9.91060606 L63.3567164,9.91060606 L63.3567164,14.8424242 L65.1243781,14.8424242 L65.1243781,14.8424242 Z" id="Shape"></path>
                        <path d="M75.4977612,11.6484848 L75.4977612,11.6954545 C75.590796,13.8090909 76.8932836,15.0772727 78.8935323,15.0772727 C80.4751244,15.0772727 81.0798507,14.5606061 81.6380597,14.5606061 C82.1032338,14.5606061 82.3823383,14.9363636 82.3823383,15.3590909 C82.3823383,15.6409091 82.2893035,15.8757576 82.0567164,16.1106061 C81.6380597,16.4863636 80.428607,17.0969697 78.4748756,17.0969697 C75.1721393,17.0969697 73.0788557,14.9833333 73.0788557,11.6954545 C73.0788557,7.7969697 75.3116915,5.54242424 78.3818408,5.54242424 C81.0333333,5.54242424 82.800995,7.32727273 82.800995,10.2863636 C82.800995,11.2257576 82.3358209,11.6954545 81.4985075,11.6954545 L75.4977612,11.6954545 L75.4977612,11.6484848 Z M80.5681592,9.95757576 C80.3820896,8.12575758 79.5447761,7.23333333 78.1492537,7.23333333 C76.939801,7.23333333 75.9164179,8.07878788 75.5442786,9.95757576 L80.5681592,9.95757576 L80.5681592,9.95757576 Z" id="Shape"></path>
                        <path d="M91.1741294,9.72272727 C91.1741294,8.07878788 90.5228856,7.42121212 88.7087065,7.42121212 C86.9410448,7.42121212 86.2432836,8.07878788 85.731592,8.07878788 C85.2664179,8.07878788 84.940796,7.75 84.940796,7.23333333 C84.940796,6.95151515 85.0338308,6.76363636 85.2199005,6.52878788 C85.6385572,6.10606061 87.2201493,5.44848485 89.220398,5.44848485 C92.1044776,5.44848485 93.5465174,6.81060606 93.5465174,9.3 L93.5465174,13.1515152 C93.5465174,15.1242424 93.8721393,15.4530303 93.8721393,15.969697 C93.8721393,16.4863636 93.5,16.8621212 92.8022388,16.8621212 C92.0114428,16.8621212 91.5927861,16.2984848 91.4067164,15.4530303 L91.360199,15.4530303 C91.360199,15.4530303 90.2437811,17.0030303 88.0574627,17.0030303 C85.6850746,17.0030303 84.3360697,15.5939394 84.3360697,13.7151515 C84.3360697,11.6954545 86.1502488,10.6151515 88.9878109,10.6151515 C90.3368159,10.6151515 91.1276119,10.85 91.1276119,10.85 L91.1276119,9.72272727 L91.1741294,9.72272727 Z M91.1741294,12.4939394 C91.1741294,12.4939394 90.3833333,12.2590909 89.2669154,12.2590909 C87.5922886,12.2590909 86.8014925,12.7287879 86.8014925,13.6212121 C86.8014925,14.4666667 87.4527363,15.1712121 88.6621891,15.1712121 C90.2437811,15.1712121 91.1276119,13.8090909 91.1276119,13.8090909 L91.1276119,12.4939394 L91.1741294,12.4939394 Z" id="Shape"></path>
                        <path d="M95.4537313,7.51515152 C95.2676617,7.04545455 95.2676617,6.90454545 95.2676617,6.71666667 C95.2676617,6.01212121 96.0119403,5.58939394 96.6166667,5.58939394 C96.9422886,5.58939394 97.1748756,5.68333333 97.3609453,5.87121212 C97.5004975,6.01212121 97.5935323,6.2469697 97.779602,6.71666667 L99.9659204,12.869697 C100.291542,13.7621212 100.431095,14.4666667 100.431095,14.4666667 L100.477612,14.4666667 C100.477612,14.4666667 100.663682,13.7621212 100.942786,12.869697 L103.082587,6.66969697 C103.222139,6.29393939 103.315174,6.01212121 103.454726,5.87121212 C103.640796,5.68333333 103.873383,5.58939394 104.199005,5.58939394 C104.757214,5.58939394 105.454975,5.96515152 105.454975,6.62272727 C105.454975,6.81060606 105.408458,6.95151515 105.268905,7.37424242 L102.338308,15.1242424 C102.105721,15.7348485 101.919652,16.2045455 101.640547,16.4393939 C101.361443,16.7212121 100.989303,16.9090909 100.33806,16.9090909 C99.6868159,16.9090909 99.3146766,16.7681818 99.0355721,16.4863636 C98.8029851,16.2515152 98.570398,15.7818182 98.3378109,15.1712121 L95.4537313,7.51515152 L95.4537313,7.51515152 Z" id="Shape"></path>
                        <path d="M108.850746,11.6484848 L108.850746,11.6954545 C108.943781,13.8090909 110.246269,15.0772727 112.246517,15.0772727 C113.828109,15.0772727 114.432836,14.5606061 114.991045,14.5606061 C115.456219,14.5606061 115.735323,14.9363636 115.735323,15.3590909 C115.735323,15.6409091 115.642289,15.8757576 115.409701,16.1106061 C114.991045,16.4863636 113.781592,17.0969697 111.827861,17.0969697 C108.525124,17.0969697 106.431841,14.9833333 106.431841,11.6954545 C106.431841,7.7969697 108.664677,5.54242424 111.734826,5.54242424 C114.386318,5.54242424 116.15398,7.32727273 116.15398,10.2863636 C116.15398,11.2257576 115.688806,11.6954545 114.851493,11.6954545 L108.850746,11.6954545 L108.850746,11.6484848 Z M113.921144,9.95757576 C113.735075,8.12575758 112.897761,7.23333333 111.502239,7.23333333 C110.292786,7.23333333 109.269403,8.07878788 108.897264,9.95757576 L113.921144,9.95757576 L113.921144,9.95757576 Z" id="Shape"></path>
                        <path d="M118.619403,6.57575758 C118.619403,5.91818182 118.991542,5.54242424 119.642786,5.54242424 C120.29403,5.54242424 120.619652,5.87121212 120.712687,6.52878788 L120.852239,7.46818182 L120.898756,7.46818182 C121.456965,6.29393939 122.433831,5.44848485 123.550249,5.44848485 C124.341045,5.44848485 124.759701,5.87121212 124.759701,6.66969697 C124.759701,7.56212121 124.294527,8.07878788 123.829353,8.07878788 C123.503731,8.07878788 123.364179,7.93787879 123.038557,7.93787879 C122.294279,7.93787879 121.596517,8.68939394 121.038308,9.76969697 L121.038308,15.8287879 C121.038308,16.5333333 120.666169,16.9090909 119.828856,16.9090909 C118.991542,16.9090909 118.619403,16.4863636 118.619403,15.8287879 L118.619403,6.57575758 L118.619403,6.57575758 Z" id="Shape"></path>
                    </g>
                    <g id="Group">
                        <path d="M37.4439636,4.32594197 C38.1706038,3.5922367 38.1706038,2.40266542 37.4439636,1.66896015 C36.7173234,0.935254882 35.5392068,0.935254882 34.8125666,1.66896015 C34.0859264,2.40266542 34.0859264,3.5922367 34.8125666,4.32594197 C35.5392068,5.05964724 36.7173234,5.05964724 37.4439636,4.32594197 L37.4439636,4.32594197 Z" id="Oval" fill="#2ABAFF"></path>
                        <path d="M19.7699005,19.2106061 C17.8161692,19.2106061 15.8159204,18.4590909 14.3273632,16.9560606 C12.6062189,15.2181818 11.8154229,12.869697 12.1410448,10.4742424 C12.280597,9.44090909 13.2109453,8.73636364 14.2343284,8.87727273 C15.2577114,9.01818182 15.9554726,9.95757576 15.8159204,10.9909091 C15.6763682,12.2121212 16.0485075,13.4333333 16.9323383,14.3257576 C18.4674129,15.8757576 20.9793532,15.8757576 22.5144279,14.3257576 L30.74801,6.01212121 C31.4922886,5.26060606 32.6552239,5.26060606 33.3995025,6.01212121 C34.1437811,6.76363636 34.1437811,7.93787879 33.3995025,8.68939394 L25.2124378,16.9090909 C23.7238806,18.4590909 21.7236318,19.2106061 19.7699005,19.2106061 L19.7699005,19.2106061 Z" id="Shape" fill="url(#linearGradient-1)"></path>
                        <path d="M19.7699005,25.0818182 C16.3276119,25.0818182 12.838806,23.7666667 10.2338308,21.0893939 C7.5358209,18.3651515 6.09378109,14.5606061 6.32636816,10.6621212 C6.37288557,9.62878788 7.25671642,8.83030303 8.2800995,8.87727273 C9.30348259,8.92424242 10.0942786,9.81666667 10.0477612,10.85 C9.90820896,13.6681818 10.931592,16.3924242 12.8853234,18.4121212 C16.6997512,22.2636364 22.8865672,22.2636364 26.700995,18.4121212 L43.4472637,1.5030303 C44.1915423,0.751515152 45.3544776,0.751515152 46.0987562,1.5030303 C46.8430348,2.25454545 46.8430348,3.42878788 46.0987562,4.18030303 L29.3524876,21.0893939 C26.700995,23.719697 23.2121891,25.0818182 19.7699005,25.0818182 L19.7699005,25.0818182 Z" id="Shape" fill="url(#linearGradient-2)"></path>
                        <path d="M19.7699005,30.9530303 C14.8390547,30.9530303 9.86169154,29.0742424 6.14029851,25.269697 C2.32587065,21.4181818 0.279104478,16.1106061 0.465174129,10.6621212 C0.511691542,9.62878788 1.39552239,8.83030303 2.41890547,8.87727273 C3.44228856,8.92424242 4.23308458,9.81666667 4.18656716,10.85 C4.00049751,15.2181818 5.67512438,19.4924242 8.74527363,22.5924242 C14.8390547,28.7454545 24.7007463,28.7454545 30.7945274,22.5924242 L51.4947761,1.69090909 C52.2390547,0.939393939 53.40199,0.939393939 54.1462687,1.69090909 C54.8905473,2.44242424 54.8905473,3.61666667 54.1462687,4.36818182 L33.3995025,25.2227273 C29.6781095,29.0272727 24.7007463,30.9530303 19.7699005,30.9530303 L19.7699005,30.9530303 Z" id="Shape" fill="url(#linearGradient-3)"></path>
                    </g>
                </g>
            </g>
        </g>
    </g>
</svg>