<?xml version="1.0" encoding="UTF-8" standalone="no"?>
<svg width="24px" height="20px" viewBox="0 0 24 20" version="1.1" xmlns="http://www.w3.org/2000/svg" xmlns:xlink="http://www.w3.org/1999/xlink" xmlns:sketch="http://www.bohemiancoding.com/sketch/ns">
    <!-- Generator: Sketch 3.5.2 (25235) - http://www.bohemiancoding.com/sketch -->
    <title>twitter-logo-large</title>
    <desc>Created with Sketch.</desc>
    <defs></defs>
    <g id="Page-1" stroke="none" stroke-width="1" fill="none" fill-rule="evenodd" sketch:type="MSPage">
        <g id="Landing-page-2" sketch:type="MSArtboardGroup" transform="translate(-368.000000, -418.000000)" fill="#FFFFFF">
            <g id="Elements" sketch:type="MSLayerGroup" transform="translate(112.000000, 240.000000)">
                <g id="Buttons" transform="translate(237.000000, 156.000000)" sketch:type="MSShapeGroup">
                    <g id="Share-to-twitter">
                        <path d="M38.8323041,24.1476777 C39.6289074,24.0770777 40.6631973,23.634651 41.2727106,23.3251877 C41.4715673,23.2169344 41.666894,23.1098577 41.864574,23.0016044 C41.515104,23.9405843 41.045614,24.6748243 40.3196107,25.2349176 C40.159584,25.3596443 39.9995574,25.5267309 39.7983474,25.6055676 C40.830284,25.6079209 41.681014,25.141961 42.4917373,24.887801 C42.0657839,25.5761509 41.4915706,26.2609709 40.876174,26.7539942 C40.629074,26.9457909 40.3807973,27.1446476 40.1325207,27.3446809 C40.1478174,28.4366275 40.1184007,29.4803308 39.9148374,30.3981308 C38.7275807,35.7413739 35.5764675,39.3666838 30.590931,40.9210604 C28.8000444,41.4776237 25.9077979,41.7047203 23.8580446,41.197577 C22.840228,40.9445937 21.918898,40.6610171 21.0587547,40.2856604 C20.5786747,40.0726837 20.1350714,39.8479404 19.7126481,39.5878971 C19.5726248,39.5031771 19.4326015,39.4196338 19.2925781,39.3349138 C19.7561848,39.3490338 20.2986281,39.4749371 20.8140081,39.3925704 C21.2834981,39.3172638 21.7412214,39.3372671 22.173058,39.2419571 C23.2485313,39.0054471 24.2051613,38.6936305 25.0300046,38.2123738 C25.4265412,37.9805705 26.0337012,37.7052305 26.3184545,37.3663505 C25.7830712,37.3757638 25.2982846,37.2533905 24.9017479,37.1133672 C23.3650213,36.5673939 22.4648713,35.5672272 21.8812447,34.0658006 C22.3507347,34.1187506 23.6921346,34.241124 24.0074813,33.972844 C23.4215013,33.9434273 22.8555247,33.602194 22.4495747,33.3492107 C21.2140747,32.5737874 20.2021414,31.2759241 20.2103781,29.2755908 C20.3739348,29.3520741 20.5339614,29.4309108 20.6975181,29.5062175 C21.0093347,29.6380041 21.3246814,29.7074275 21.6976847,29.7862641 C21.855358,29.8180341 22.1671747,29.9086375 22.3483813,29.8415675 C22.0859847,29.5662275 21.6953314,29.3779608 21.452938,29.0779108 C20.6598647,28.0918642 19.9138581,26.5704342 20.3857014,24.7595443 C20.5057214,24.301821 20.6951647,23.8970477 20.8963747,23.5205144 C21.0093347,23.7276077 21.2199581,23.8699843 21.3482147,24.0311877 C21.756518,24.534801 22.254248,24.986641 22.7649213,25.3867076 C24.5028579,26.7457576 26.0690012,27.5788375 28.5811844,28.2001175 C29.2201144,28.3542608 29.9578844,28.4742808 30.7191877,28.4766342 C30.506211,27.8530009 30.573281,26.8469509 30.7415444,26.2409676 C31.1651444,24.7242443 32.0864743,23.631121 33.4361109,23.048671 C33.7561643,22.9086477 34.1150476,22.8062777 34.4915809,22.7250877 C34.6833776,22.6980244 34.8787042,22.6791977 35.0716775,22.6544877 C36.9143375,22.6227177 37.8968541,23.2934177 38.8323041,24.1476777 Z" id="twitter-logo-large"></path>
                    </g>
                </g>
            </g>
        </g>
    </g>
</svg>