<?xml version="1.0" standalone="no"?>
<!DOCTYPE svg PUBLIC "-//W3C//DTD SVG 20010904//EN"
 "http://www.w3.org/TR/2001/REC-SVG-20010904/DTD/svg10.dtd">
<svg version="1.0" xmlns="http://www.w3.org/2000/svg"
 width="400.000000pt" height="400.000000pt" viewBox="0 0 400.000000 400.000000"
 preserveAspectRatio="xMidYMid meet">
<metadata>
Created by potrace 1.11, written by Peter Selinger 2001-2013
</metadata>
<g transform="translate(0.000000,400.000000) scale(0.100000,-0.100000)"
fill="#000000" stroke="none">
<path d="M0 2000 l0 -2000 2000 0 2000 0 0 2000 0 2000 -2000 0 -2000 0 0
-2000z m3091 691 c23 -24 29 -38 29 -73 l0 -43 -507 -506 c-551 -549 -561
-558 -728 -616 -72 -25 -93 -27 -220 -28 -107 0 -156 4 -208 19 -38 10 -64 22
-57 26 8 5 10 37 8 102 l-3 94 70 -25 c57 -20 89 -24 170 -24 108 0 186 20
275 70 27 16 248 229 550 530 l506 503 43 0 c34 0 49 -6 72 -29z m-491 4 c33
-17 54 -70 44 -109 -3 -14 -20 -37 -36 -51 -53 -45 -126 -27 -153 39 -18 42
-8 81 27 111 34 29 75 32 118 10z m931 -14 c23 -24 29 -38 29 -73 l0 -43 -617
-616 c-521 -519 -632 -625 -709 -676 -100 -66 -207 -114 -322 -145 -89 -23
-329 -35 -402 -20 -33 7 -38 10 -17 11 l27 1 0 84 c0 47 -4 86 -10 88 -5 2 50
3 123 4 147 1 223 15 342 65 147 61 172 83 820 730 l621 619 43 0 c34 0 49 -6
72 -29z m-1157 -212 c25 -12 56 -63 56 -94 0 -36 -39 -80 -277 -316 -209 -207
-258 -250 -313 -277 -103 -51 -184 -59 -297 -30 l-42 10 -3 113 -3 114 30 -19
c58 -36 117 -44 182 -25 56 16 68 27 319 276 279 278 280 278 348 248z m-887
-1165 c-3 -3 -12 -4 -19 -1 -8 3 -5 6 6 6 11 1 17 -2 13 -5z"/>
</g>
</svg>
